<?xml version="1.0" standalone="no"?>
<!DOCTYPE svg PUBLIC "-//W3C//DTD SVG 20010904//EN"
 "http://www.w3.org/TR/2001/REC-SVG-20010904/DTD/svg10.dtd">
<svg version="1.0" xmlns="http://www.w3.org/2000/svg"
 width="72.000000pt" height="72.000000pt" viewBox="0 0 72.000000 72.000000"
 preserveAspectRatio="xMidYMid meet">

<g transform="translate(0.000000,72.000000) scale(0.100000,-0.100000)"
fill="#000000" stroke="none">
<path d="M530 585 c0 -8 7 -15 15 -15 8 0 15 7 15 15 0 8 -7 15 -15 15 -8 0
-15 -7 -15 -15z"/>
<path d="M154 579 c-10 -17 13 -36 27 -22 12 12 4 33 -11 33 -5 0 -12 -5 -16
-11z"/>
<path d="M506 565 c4 -8 10 -15 15 -15 4 0 6 7 3 15 -4 8 -10 15 -15 15 -4 0
-6 -7 -3 -15z"/>
<path d="M195 549 c-11 -17 1 -21 15 -4 8 9 8 15 2 15 -6 0 -14 -5 -17 -11z"/>
<path d="M341 489 c-18 -6 -31 -13 -28 -16 9 -8 87 8 87 18 0 11 -14 10 -59
-2z"/>
<path d="M409 430 c-7 -39 -16 -66 -19 -59 -6 8 -9 8 -15 -1 -4 -6 -13 -9 -21
-6 -8 3 -14 0 -15 -7 -1 -17 -48 84 -48 106 -1 9 -5 17 -10 17 -10 0 -8 -8 23
-101 l18 -55 44 0 c35 -1 44 3 48 20 9 36 19 156 13 156 -3 0 -11 -32 -18 -70z"/>
<path d="M345 450 c-8 -13 15 -13 35 0 12 8 11 10 -7 10 -12 0 -25 -4 -28 -10z"/>
<path d="M355 420 c-3 -5 -1 -10 4 -10 6 0 11 5 11 10 0 6 -2 10 -4 10 -3 0
-8 -4 -11 -10z"/>
<path d="M446 286 c5 -12 -13 -15 -98 -18 -57 -2 -105 0 -106 5 -6 12 -22 8
-22 -7 0 -7 -11 -30 -25 -51 -27 -38 -27 -57 -1 -36 12 10 20 5 42 -29 15 -23
41 -48 56 -56 55 -28 138 7 176 75 17 30 27 38 40 34 12 -5 9 2 -10 25 -15 18
-29 41 -33 52 -3 11 -10 20 -15 20 -5 0 -7 -6 -4 -14z m-156 -50 c0 -20 -26
-27 -40 -11 -8 10 -8 14 2 18 24 10 38 7 38 -7z m88 2 c-3 -7 -13 -13 -23 -13
-10 0 -20 6 -22 13 -3 7 5 12 22 12 17 0 25 -5 23 -12z m72 3 c0 -18 -18 -21
-30 -6 -10 13 -9 15 9 15 11 0 21 -4 21 -9z"/>
<path d="M395 60 c-11 -5 -42 -9 -70 -10 -47 -2 -48 -2 -20 -11 37 -11 100 -2
116 17 13 16 4 17 -26 4z"/>
</g>
</svg>
